# xmcd
#
# Track frame offsets: 
#        150
#        1063
#        25911
#        50605
#        71030
#        95228
#        112018
#        129237
#        144174
#        160038
#        174007
#        199393
#        222457
#        244376
#        262597
#        282629
#        304921
#
# Disc length: 4296 seconds
#
# Revision: 0
# Processed by: cddbd v1.5.2PL0 Copyright (c) Steve Scherf et al.
# Submitted via: ExactAudioCopy v0.99pb5
#
DISCID=f410c611
DTITLE=Sean Costello - At His Best - Live
DYEAR=2011
DGENRE=Blues
TTITLE0=Intro
TTITLE1=San-Ho-Zay
TTITLE2=Blue Shadows
TTITLE3=T-Bone Boogie
TTITLE4=All Your Love
TTITLE5=I Get A Feeling
TTITLE6=Check It Out
TTITLE7=Can I Change My Mind?
TTITLE8=You're Killing My Love
TTITLE9=Reconsider Baby
TTITLE10=Doing My Own Thing
TTITLE11=The Hucklebuck
TTITLE12=Motor Head Baby
TTITLE13=Hold On This Time
TTITLE14=The Battle Is Over But The War Goes On
TTITLE15=Peace Of Mind
TTITLE16=Lucille
EXTD=
EXTT0=
EXTT1=
EXTT2=
EXTT3=
EXTT4=
EXTT5=
EXTT6=
EXTT7=
EXTT8=
EXTT9=
EXTT10=
EXTT11=
EXTT12=
EXTT13=
EXTT14=
EXTT15=
EXTT16=
PLAYORDER=
